<svg xmlns="http://www.w3.org/2000/svg" width="240" height="240" fill="none"><circle cx="120.834" cy="28.433" r="8.434" fill="#65DD6B" style="fill:#65dd6b;fill:color(display-p3 .3961 .8667 .4196);fill-opacity:1" transform="rotate(-180 120.834 28.433)"/><circle cx="100.351" cy="30.832" r="8.434" fill="#65DD6B" style="fill:#65dd6b;fill:color(display-p3 .3961 .8667 .4196);fill-opacity:1" transform="rotate(-180 100.351 30.832)"/><circle cx="8.434" cy="8.434" r="8.434" fill="#65DD6B" style="fill:#65dd6b;fill:color(display-p3 .3961 .8667 .4196);fill-opacity:1" transform="matrix(1 0 0 -1 132.843 39.273)"/><circle cx="49.713" cy="63.371" r="8.434" fill="#65DD6B" style="fill:#65dd6b;fill:color(display-p3 .3961 .8667 .4196);fill-opacity:1" transform="rotate(90 49.713 63.371)"/><circle cx="8.434" cy="8.434" r="8.434" fill="#65DD6B" style="fill:#65dd6b;fill:color(display-p3 .3961 .8667 .4196);fill-opacity:1" transform="matrix(0 1 1 0 183.483 54.938)"/><circle cx="62.964" cy="47.7" r="8.434" fill="#65DD6B" style="fill:#65dd6b;fill:color(display-p3 .3961 .8667 .4196);fill-opacity:1" transform="rotate(90 62.964 47.7)"/><circle cx="8.434" cy="8.434" r="8.434" fill="#65DD6B" style="fill:#65dd6b;fill:color(display-p3 .3961 .8667 .4196);fill-opacity:1" transform="matrix(0 1 1 0 170.231 39.266)"/><circle cx="32.843" cy="99.504" r="8.434" fill="#65DD6B" style="fill:#65dd6b;fill:color(display-p3 .3961 .8667 .4196);fill-opacity:1" transform="rotate(-180 32.843 99.504)"/><circle cx="8.434" cy="8.434" r="8.434" fill="#65DD6B" style="fill:#65dd6b;fill:color(display-p3 .3961 .8667 .4196);fill-opacity:1" transform="matrix(1 0 0 -1 200.352 107.938)"/><circle cx="38.867" cy="80.238" r="8.434" fill="#65DD6B" style="fill:#65dd6b;fill:color(display-p3 .3961 .8667 .4196);fill-opacity:1" transform="rotate(-180 38.867 80.238)"/><circle cx="8.434" cy="8.434" r="8.434" fill="#65DD6B" style="fill:#65dd6b;fill:color(display-p3 .3961 .8667 .4196);fill-opacity:1" transform="matrix(1 0 0 -1 194.327 88.672)"/><circle cx="30.433" cy="119.988" r="8.434" fill="#65DD6B" style="fill:#65dd6b;fill:color(display-p3 .3961 .8667 .4196);fill-opacity:1" transform="rotate(-180 30.433 119.988)"/><circle cx="8.434" cy="8.434" r="8.434" fill="#65DD6B" style="fill:#65dd6b;fill:color(display-p3 .3961 .8667 .4196);fill-opacity:1" transform="matrix(1 0 0 -1 202.762 128.422)"/><circle cx="81.036" cy="36.864" r="8.434" fill="#65DD6B" style="fill:#65dd6b;fill:color(display-p3 .3961 .8667 .4196);fill-opacity:1" transform="rotate(90 81.036 36.864)"/><circle cx="8.434" cy="8.434" r="8.434" fill="#65DD6B" style="fill:#65dd6b;fill:color(display-p3 .3961 .8667 .4196);fill-opacity:1" transform="matrix(0 1 1 0 152.16 28.43)"/><circle cx="120.795" cy="211.567" r="8.434" fill="#65DD6B" style="fill:#65dd6b;fill:color(display-p3 .3961 .8667 .4196);fill-opacity:1"/><circle cx="141.277" cy="209.153" r="8.434" fill="#65DD6B" style="fill:#65dd6b;fill:color(display-p3 .3961 .8667 .4196);fill-opacity:1"/><circle cx="8.434" cy="8.434" r="8.434" fill="#65DD6B" style="fill:#65dd6b;fill:color(display-p3 .3961 .8667 .4196);fill-opacity:1" transform="matrix(-1 0 0 1 108.785 200.719)"/><circle cx="191.92" cy="176.621" r="8.434" fill="#65DD6B" style="fill:#65dd6b;fill:color(display-p3 .3961 .8667 .4196);fill-opacity:1" transform="rotate(-90 191.92 176.621)"/><circle cx="8.434" cy="8.434" r="8.434" fill="#65DD6B" style="fill:#65dd6b;fill:color(display-p3 .3961 .8667 .4196);fill-opacity:1" transform="matrix(0 -1 -1 0 58.145 185.062)"/><circle cx="178.665" cy="192.285" r="8.434" fill="#65DD6B" style="fill:#65dd6b;fill:color(display-p3 .3961 .8667 .4196);fill-opacity:1" transform="rotate(-90 178.665 192.285)"/><circle cx="8.434" cy="8.434" r="8.434" fill="#65DD6B" style="fill:#65dd6b;fill:color(display-p3 .3961 .8667 .4196);fill-opacity:1" transform="matrix(0 -1 -1 0 71.397 200.719)"/><circle cx="208.785" cy="140.481" r="8.434" fill="#65DD6B" style="fill:#65dd6b;fill:color(display-p3 .3961 .8667 .4196);fill-opacity:1"/><circle cx="8.434" cy="8.434" r="8.434" fill="#65DD6B" style="fill:#65dd6b;fill:color(display-p3 .3961 .8667 .4196);fill-opacity:1" transform="matrix(-1 0 0 1 41.277 132.047)"/><circle cx="202.761" cy="159.754" r="8.434" fill="#65DD6B" style="fill:#65dd6b;fill:color(display-p3 .3961 .8667 .4196);fill-opacity:1"/><circle cx="8.434" cy="8.434" r="8.434" fill="#65DD6B" style="fill:#65dd6b;fill:color(display-p3 .3961 .8667 .4196);fill-opacity:1" transform="matrix(-1 0 0 1 47.302 151.32)"/><circle cx="160.594" cy="203.129" r="8.434" fill="#65DD6B" style="fill:#65dd6b;fill:color(display-p3 .3961 .8667 .4196);fill-opacity:1" transform="rotate(-90 160.594 203.129)"/><circle cx="8.434" cy="8.434" r="8.434" fill="#65DD6B" style="fill:#65dd6b;fill:color(display-p3 .3961 .8667 .4196);fill-opacity:1" transform="matrix(0 -1 -1 0 89.47 211.562)"/><circle cx="112.577" cy="144.089" r="8.434" fill="#65DD6B" style="fill:#65dd6b;fill:color(display-p3 .3961 .8667 .4196);fill-opacity:1" transform="rotate(-180 112.577 144.089)"/><circle cx="8.434" cy="8.434" r="8.434" fill="#65DD6B" style="fill:#65dd6b;fill:color(display-p3 .3961 .8667 .4196);fill-opacity:1" transform="rotate(135 28.644 87.752) skewX(-.001)"/><circle cx="8.434" cy="8.434" r="8.434" fill="#65DD6B" style="fill:#65dd6b;fill:color(display-p3 .3961 .8667 .4196);fill-opacity:1" transform="rotate(135 43.124 93.745) skewX(-.001)"/><circle cx="8.434" cy="8.434" r="8.434" fill="#65DD6B" style="fill:#65dd6b;fill:color(display-p3 .3961 .8667 .4196);fill-opacity:1" transform="rotate(135 53.337 89.427) skewX(-.001)"/><circle cx="8.434" cy="8.434" r="8.434" fill="#65DD6B" style="fill:#65dd6b;fill:color(display-p3 .3961 .8667 .4196);fill-opacity:1" transform="rotate(135 63.733 85.321) skewX(-.001)"/><circle cx="8.434" cy="8.434" r="8.434" fill="#65DD6B" style="fill:#65dd6b;fill:color(display-p3 .3961 .8667 .4196);fill-opacity:1" transform="rotate(135 24.378 77.56) skewX(-.001)"/></svg>