<svg xmlns="http://www.w3.org/2000/svg" width="123" height="34" fill="none"><path fill="#03282C" d="M10.5 28.6C10 26.3 9 23.3 5.7 13.7H0l7.8 19.8H13l7.4-19.8h-5.6c-3.2 9.4-4 12.4-4.4 14.9ZM30.5 13.3c-5.8 0-10 4.4-10 10.4a9.8 9.8 0 0 0 10.3 10.2c3.8 0 7-2 8.6-4.9l-4-2.2c-.7 1.6-2.3 2.7-4.6 2.7-2.7 0-4.8-1.8-5-4.2h14.6c.3-8-4-12-9.9-12Zm-4.8 8.3c.2-2.4 2.2-4 4.8-4 2.6 0 4.5 1.6 4.6 4h-9.4ZM61.5 13.7h-5.3v19.8h5.3V13.7ZM87 9.3l2.2.3V5.3c-.9-.3-2-.5-3.3-.5-3.5 0-7 1.9-7 7.5v1.4h-7.6v-.6c-.3-2.9.8-3.8 2.7-3.8l2.4.3V5.3c-1-.3-2.1-.5-3.4-.5-3.4 0-6.9 1.9-6.9 7.5v1.4h-2.3v4.2h2.3v15.6h5.2V18H79v15.6h5.2V18h5v-4.2h-5v-.6c-.3-2.9.8-3.8 2.7-3.8ZM48.3 19.8V19l-.6-5.3H43v19.8h5.2v-8c0-4.2 2.8-6.8 5.9-6.8v-5.2c-3.7.3-6 2.5-6 6.3ZM61.5 6.5h-5.3V11h5.3V6.5Z"/><path fill="#14E5C5" d="M112.4 13.5V27c.9-6.7 4.8-11.2 10.6-13.3V0c-6.7 1.2-10.6 5.6-10.6 13.5ZM99.9 25l10.6 9V16.1l-10.6-9V25Z"/></svg>