<svg width="32" height="20" viewBox="0 0 32 20" fill="none" xmlns="http://www.w3.org/2000/svg">
<g id="Apple_Pay_Mark_RGB_041619 3" clip-path="url(#clip0_2639_21381)">
<g id="Group">
<path id="XMLID_4_" d="M28.443 0H2.79775C2.69094 0 2.58394 0 2.47732 0.000622847C2.3872 0.00126457 2.29728 0.0022649 2.20736 0.00471853C2.01126 0.0100222 1.81348 0.021592 1.61983 0.0563959C1.42309 0.0918038 1.24001 0.149559 1.0614 0.240494C0.885815 0.329788 0.725064 0.446581 0.585756 0.585948C0.446388 0.725314 0.329595 0.885801 0.24032 1.06158C0.149365 1.24018 0.0915728 1.42332 0.0564103 1.62021C0.0214195 1.81392 0.00977227 2.01166 0.00448752 2.20756C0.00207163 2.29747 0.00103544 2.38739 0.00044845 2.47729C-0.000174397 2.58413 3.32185e-05 2.6909 3.32185e-05 2.79794V17.2023C3.32185e-05 17.3093 -0.000174397 17.4159 0.00044845 17.5229C0.00103544 17.6128 0.00207163 17.7028 0.00448752 17.7927C0.00977227 17.9884 0.0214195 18.1861 0.0564103 18.3798C0.0915728 18.5768 0.149365 18.7598 0.24032 18.9384C0.329595 19.1142 0.446388 19.2749 0.585756 19.4141C0.725064 19.5537 0.885815 19.6704 1.0614 19.7595C1.24001 19.8507 1.42309 19.9085 1.61983 19.9438C1.81348 19.9784 2.01126 19.9902 2.20736 19.9955C2.29728 19.9975 2.3872 19.9988 2.47732 19.9992C2.58394 20 2.69094 20 2.79775 20H28.443C28.5496 20 28.6566 20 28.7632 19.9992C28.8531 19.9988 28.943 19.9975 29.0333 19.9955C29.229 19.9902 29.4268 19.9784 29.6209 19.9438C29.8174 19.9085 30.0005 19.8507 30.1791 19.7595C30.3549 19.6704 30.5152 19.5537 30.6548 19.4141C30.7939 19.2749 30.9107 19.1142 31.0002 18.9384C31.0914 18.7598 31.1491 18.5768 31.1841 18.3798C31.2191 18.1861 31.2305 17.9884 31.2358 17.7927C31.2382 17.7028 31.2394 17.6128 31.2398 17.5229C31.2407 17.4159 31.2407 17.3093 31.2407 17.2023V2.79794C31.2407 2.6909 31.2407 2.58413 31.2398 2.47729C31.2394 2.38739 31.2382 2.29747 31.2358 2.20756C31.2305 2.01166 31.2191 1.81392 31.1841 1.62021C31.1491 1.42332 31.0914 1.24018 31.0002 1.06158C30.9107 0.885801 30.7939 0.725314 30.6548 0.585948C30.5152 0.446581 30.3549 0.329788 30.1791 0.240494C30.0005 0.149559 29.8174 0.0918038 29.6209 0.0563959C29.4268 0.021592 29.229 0.0100222 29.0333 0.00471853C28.943 0.0022649 28.8531 0.00126457 28.7632 0.000622847C28.6566 0 28.5496 0 28.443 0Z" fill="black"/>
<path id="XMLID_3_" d="M28.4429 0.666504L28.7584 0.667108C28.8439 0.667712 28.9293 0.668637 29.0153 0.670977C29.1648 0.675016 29.3396 0.683113 29.5026 0.71233C29.6443 0.737848 29.7631 0.776653 29.8772 0.83471C29.9898 0.891918 30.0929 0.966886 30.183 1.05682C30.2734 1.14736 30.3485 1.25068 30.4064 1.36451C30.4641 1.47766 30.5027 1.59592 30.5281 1.73865C30.5572 1.89987 30.5653 2.07521 30.5694 2.22562C30.5717 2.31052 30.5728 2.39541 30.5732 2.48233C30.574 2.58744 30.574 2.69249 30.574 2.79781V17.2021C30.574 17.3075 30.574 17.4123 30.5732 17.5197C30.5728 17.6046 30.5717 17.6894 30.5694 17.7745C30.5653 17.9247 30.5572 18.0999 30.5277 18.2631C30.5027 18.4038 30.4642 18.5221 30.4061 18.6358C30.3483 18.7494 30.2734 18.8526 30.1834 18.9425C30.0928 19.0331 29.99 19.1079 29.8761 19.1656C29.7629 19.2234 29.6442 19.2622 29.5039 19.2874C29.3376 19.317 29.1555 19.3252 29.0182 19.3289C28.9319 19.3309 28.846 19.332 28.758 19.3324C28.6531 19.3333 28.5478 19.3332 28.4429 19.3332H2.79772C2.79633 19.3332 2.79497 19.3332 2.79355 19.3332C2.68986 19.3332 2.58596 19.3332 2.48037 19.3324C2.39429 19.332 2.30839 19.3309 2.22535 19.329C2.085 19.3252 1.90269 19.3171 1.73775 19.2876C1.59625 19.2622 1.47763 19.2234 1.36295 19.1649C1.2501 19.1076 1.14737 19.033 1.05675 18.9422C0.966838 18.8524 0.892115 18.7496 0.834342 18.6358C0.776511 18.5222 0.737819 18.4036 0.712379 18.2611C0.682971 18.0983 0.674893 17.9238 0.670856 17.7746C0.668551 17.6892 0.667589 17.6038 0.667041 17.5189L0.666626 17.2683L0.666645 17.2021V2.79781L0.666626 2.73164L0.667022 2.48154C0.667589 2.39613 0.668551 2.31074 0.670856 2.22541C0.674893 2.0761 0.682971 1.90148 0.712622 1.73731C0.737838 1.59615 0.776511 1.47751 0.834644 1.36334C0.891964 1.25049 0.966819 1.14747 1.05721 1.0571C1.14724 0.967037 1.25031 0.892163 1.36387 0.834408C1.47733 0.776634 1.59618 0.737848 1.73768 0.712387C1.90071 0.683094 2.07569 0.675016 2.22555 0.670958C2.31098 0.668637 2.3964 0.667712 2.48119 0.667127L2.79772 0.666504H28.4429Z" fill="white"/>
<g id="Group_2">
<g id="Group_3">
<path id="Vector" d="M8.5285 6.72676C8.79599 6.39219 8.97751 5.94295 8.92963 5.48389C8.53806 5.50336 8.06023 5.74222 7.78358 6.07706C7.53519 6.36379 7.31533 6.83184 7.37265 7.27166C7.81221 7.30978 8.25136 7.05195 8.5285 6.72676Z" fill="black"/>
<path id="Vector_2" d="M8.92465 7.35753C8.28631 7.3195 7.74356 7.71982 7.43872 7.71982C7.13371 7.71982 6.6669 7.37669 6.162 7.38594C5.50485 7.39559 4.89508 7.76715 4.5616 8.3581C3.8757 9.5403 4.38059 11.2939 5.0476 12.2568C5.37152 12.7331 5.76189 13.2576 6.27626 13.2388C6.76226 13.2197 6.95275 12.9241 7.5435 12.9241C8.13382 12.9241 8.30541 13.2388 8.81987 13.2292C9.35338 13.2197 9.68691 12.7526 10.0108 12.2758C10.3824 11.7328 10.5345 11.2085 10.5441 11.1797C10.5345 11.1702 9.51535 10.7792 9.5059 9.60682C9.49627 8.62518 10.3061 8.15825 10.3442 8.1293C9.88688 7.45295 9.17236 7.37669 8.92465 7.35753Z" fill="black"/>
</g>
<g id="Group_4">
<path id="Vector_3" d="M14.4829 6.02881C15.8703 6.02881 16.8364 6.98518 16.8364 8.37758C16.8364 9.77495 15.8504 10.7363 14.4481 10.7363H12.9119V13.1792H11.8021V6.02881L14.4829 6.02881ZM12.9119 9.80467H14.1854C15.1517 9.80467 15.7017 9.28443 15.7017 8.38255C15.7017 7.48076 15.1517 6.96539 14.1904 6.96539H12.9119V9.80467Z" fill="black"/>
<path id="Vector_4" d="M17.1264 11.6975C17.1264 10.7857 17.8251 10.2258 19.064 10.1564L20.491 10.0722V9.67088C20.491 9.09109 20.0995 8.74423 19.4455 8.74423C18.826 8.74423 18.4395 9.04149 18.3454 9.50734H17.3346C17.394 8.56579 18.1967 7.87207 19.4851 7.87207C20.7487 7.87207 21.5563 8.54103 21.5563 9.58657V13.1791H20.5306V12.3219H20.5059C20.2037 12.9017 19.5446 13.2683 18.8608 13.2683C17.84 13.2683 17.1264 12.634 17.1264 11.6975ZM20.491 11.2268V10.8155L19.2076 10.8948C18.5683 10.9394 18.2066 11.2218 18.2066 11.6678C18.2066 12.1236 18.5832 12.421 19.158 12.421C19.9062 12.421 20.491 11.9056 20.491 11.2268Z" fill="black"/>
<path id="Vector_5" d="M22.5247 15.0969V14.2297C22.6038 14.2495 22.7822 14.2495 22.8715 14.2495C23.3669 14.2495 23.6346 14.0414 23.798 13.5063C23.798 13.4963 23.8923 13.1892 23.8923 13.1842L22.0093 7.96631H23.1687L24.4869 12.208H24.5066L25.8249 7.96631H26.9546L25.0021 13.4517C24.5563 14.7154 24.041 15.1217 22.9607 15.1217C22.8715 15.1217 22.6038 15.1117 22.5247 15.0969Z" fill="black"/>
</g>
</g>
</g>
</g>
<defs>
<clipPath id="clip0_2639_21381">
<rect width="31.2407" height="20" fill="white"/>
</clipPath>
</defs>
</svg>
