<svg xmlns="http://www.w3.org/2000/svg" width="41" height="17" fill="none"><path fill="#fff" d="M7.815 2.204c.47-.59.79-1.38.706-2.188-.69.034-1.53.454-2.018 1.044-.437.505-.824 1.328-.723 2.103.774.067 1.547-.387 2.035-.96ZM8.508 3.313c-1.124-.067-2.08.638-2.617.638-.537 0-1.358-.604-2.247-.588-1.157.017-2.231.671-2.818 1.711-1.208 2.082-.319 5.168.856 6.863.57.839 1.257 1.762 2.163 1.73.855-.034 1.19-.555 2.23-.555s1.342.554 2.248.537c.94-.016 1.527-.839 2.097-1.678.654-.956.922-1.879.939-1.93-.017-.016-1.811-.705-1.828-2.768-.017-1.728 1.409-2.55 1.476-2.601-.805-1.19-2.063-1.325-2.5-1.359ZM18.292.977c2.443 0 4.144 1.683 4.144 4.134 0 2.46-1.736 4.152-4.205 4.152h-2.705v4.3h-1.954V.978h4.72Zm-2.766 6.646h2.242c1.702 0 2.67-.915 2.67-2.503s-.968-2.495-2.66-2.495h-2.252v4.998ZM22.943 10.953c0-1.605 1.23-2.59 3.412-2.713l2.512-.148v-.707c0-1.02-.69-1.63-1.84-1.63-1.091 0-1.772.522-1.937 1.342h-1.78c.105-1.657 1.518-2.878 3.786-2.878 2.225 0 3.647 1.177 3.647 3.018v6.324h-1.806v-1.51h-.044c-.532 1.021-1.692 1.667-2.896 1.667-1.797 0-3.054-1.117-3.054-2.765Zm5.924-.829V9.4l-2.26.14c-1.125.078-1.762.576-1.762 1.36 0 .803.663 1.326 1.675 1.326 1.318 0 2.347-.907 2.347-2.102ZM32.45 16.939v-1.527c.14.035.454.035.61.035.873 0 1.344-.366 1.632-1.308 0-.018.166-.558.166-.567l-3.315-9.185h2.041l2.321 7.467h.035l2.32-7.467h1.99l-3.438 9.656c-.785 2.224-1.692 2.94-3.594 2.94-.157 0-.628-.018-.768-.044Z"/></svg>