<svg xmlns="http://www.w3.org/2000/svg" width="42" height="17" fill="none"><path fill="#fff" fill-rule="evenodd" d="M19.65 2.797V6.88h2.518c.6 0 1.096-.202 1.488-.605.402-.402.604-.882.604-1.437 0-.544-.202-1.019-.605-1.422-.392-.413-.888-.62-1.488-.62H19.65Zm0 5.52v4.736h-1.505V1.36h3.99c1.013 0 1.874.338 2.583 1.013.72.675 1.079 1.497 1.079 2.466 0 .99-.36 1.819-1.079 2.482-.698.665-1.56.996-2.584.996H19.65Zm7.667 2.286c0 .392.166.72.499.98.332.262.722.392 1.169.392.633 0 1.195-.234 1.692-.702.496-.468.744-1.018.744-1.649-.47-.37-1.123-.555-1.962-.555-.611 0-1.12.148-1.529.442-.409.293-.613.657-.613 1.092Zm1.946-5.814c1.112 0 1.99.297 2.633.89.643.594.964 1.408.964 2.442v4.932h-1.438v-1.11h-.066c-.622.914-1.45 1.372-2.485 1.372-.883 0-1.622-.262-2.215-.784-.595-.523-.891-1.176-.891-1.96 0-.828.313-1.486.939-1.976.627-.49 1.463-.735 2.51-.735.893 0 1.629.163 2.207.49v-.344c0-.523-.208-.966-.622-1.33a2.132 2.132 0 0 0-1.454-.548c-.84 0-1.505.354-1.995 1.062l-1.325-.833c.73-1.045 1.81-1.568 3.238-1.568Zm11.854.261-5.02 11.53h-1.553l1.864-4.034-3.303-7.496h1.635l2.387 5.75h.033l2.322-5.75h1.635Z" clip-rule="evenodd"/><path fill="#4285F4" fill-rule="evenodd" d="M13.57 7.296c0-.473-.04-.93-.116-1.366H7.11v2.587h3.633A3.112 3.112 0 0 1 9.4 10.56v1.681h2.168c1.27-1.17 2.002-2.9 2.002-4.944Z" clip-rule="evenodd"/><path fill="#34A853" fill-rule="evenodd" d="M7.111 13.86c1.815 0 3.344-.596 4.458-1.623l-2.168-1.68c-.604.405-1.38.643-2.29.643-1.755 0-3.244-1.182-3.776-2.774H1.1v1.731a6.727 6.727 0 0 0 6.01 3.702Z" clip-rule="evenodd"/><path fill="#FABB05" fill-rule="evenodd" d="M3.334 8.428a4.031 4.031 0 0 1 0-2.572V4.125H1.1a6.682 6.682 0 0 0-.716 3.018c0 1.085.259 2.11.716 3.018l2.234-1.732Z" clip-rule="evenodd"/><path fill="#E94235" fill-rule="evenodd" d="M7.111 3.082c.991 0 1.88.34 2.58 1.007v.001l1.92-1.917C10.447 1.088 8.926.422 7.112.422a6.727 6.727 0 0 0-6.01 3.702l2.234 1.731c.532-1.592 2.021-2.773 3.776-2.773Z" clip-rule="evenodd"/></svg>