<svg width="38" height="20" viewBox="0 0 38 20" fill="none" xmlns="http://www.w3.org/2000/svg">
<g id="google-pay-mark_800 3" clip-path="url(#clip0_2639_21393)">
<path id="Base_1_" d="M27.8756 0H10.2756C4.77564 0 0.275635 4.5 0.275635 10C0.275635 15.5 4.77564 20 10.2756 20H27.8756C33.3756 20 37.8756 15.5 37.8756 10C37.8756 4.5 33.3756 0 27.8756 0Z" fill="white"/>
<path id="Outline" d="M27.8756 0.81C29.1106 0.81 30.3106 1.055 31.4406 1.535C32.5356 2 33.5156 2.665 34.3656 3.51C35.2106 4.355 35.8756 5.34 36.3406 6.435C36.8206 7.565 37.0656 8.765 37.0656 10C37.0656 11.235 36.8206 12.435 36.3406 13.565C35.8756 14.66 35.2106 15.64 34.3656 16.49C33.5206 17.335 32.5356 18 31.4406 18.465C30.3106 18.945 29.1106 19.19 27.8756 19.19H10.2756C9.04064 19.19 7.84063 18.945 6.71063 18.465C5.61563 18 4.63563 17.335 3.78563 16.49C2.94063 15.645 2.27563 14.66 1.81063 13.565C1.33063 12.435 1.08563 11.235 1.08563 10C1.08563 8.765 1.33063 7.565 1.81063 6.435C2.27563 5.34 2.94063 4.36 3.78563 3.51C4.63063 2.665 5.61563 2 6.71063 1.535C7.84063 1.055 9.04064 0.81 10.2756 0.81H27.8756ZM27.8756 0H10.2756C4.77564 0 0.275635 4.5 0.275635 10C0.275635 15.5 4.77564 20 10.2756 20H27.8756C33.3756 20 37.8756 15.5 37.8756 10C37.8756 4.5 33.3756 0 27.8756 0Z" fill="#3C4043"/>
<g id="G_Pay_Lockup_1_">
<g id="Pay_Typeface_3_">
<path id="Letter_p_3_" d="M18.2057 10.7101V13.7351H17.2457V6.26514H19.7907C20.4357 6.26514 20.9857 6.48014 21.4357 6.91014C21.8957 7.34014 22.1257 7.86514 22.1257 8.48514C22.1257 9.12014 21.8957 9.64514 21.4357 10.0701C20.9907 10.4951 20.4407 10.7051 19.7907 10.7051H18.2057V10.7101ZM18.2057 7.18514V9.79014H19.8107C20.1907 9.79014 20.5107 9.66014 20.7607 9.40514C21.0157 9.15014 21.1457 8.84014 21.1457 8.49014C21.1457 8.14514 21.0157 7.84014 20.7607 7.58514C20.5107 7.32014 20.1957 7.19014 19.8107 7.19014H18.2057V7.18514Z" fill="#3C4043"/>
<path id="Letter_a_3_" d="M24.6356 8.45508C25.3456 8.45508 25.9056 8.64508 26.3156 9.02508C26.7256 9.40508 26.9306 9.92508 26.9306 10.5851V13.7351H26.0156V13.0251H25.9756C25.5806 13.6101 25.0506 13.9001 24.3906 13.9001C23.8256 13.9001 23.3556 13.7351 22.9756 13.4001C22.5956 13.0651 22.4056 12.6501 22.4056 12.1501C22.4056 11.6201 22.6056 11.2001 23.0056 10.8901C23.4056 10.5751 23.9406 10.4201 24.6056 10.4201C25.1756 10.4201 25.6456 10.5251 26.0106 10.7351V10.5151C26.0106 10.1801 25.8806 9.90008 25.6156 9.66508C25.3506 9.43008 25.0406 9.31508 24.6856 9.31508C24.1506 9.31508 23.7256 9.54008 23.4156 9.99508L22.5706 9.46508C23.0356 8.79008 23.7256 8.45508 24.6356 8.45508ZM23.3956 12.1651C23.3956 12.4151 23.5006 12.6251 23.7156 12.7901C23.9256 12.9551 24.1756 13.0401 24.4606 13.0401C24.8656 13.0401 25.2256 12.8901 25.5406 12.5901C25.8556 12.2901 26.0156 11.9401 26.0156 11.5351C25.7156 11.3001 25.3006 11.1801 24.7656 11.1801C24.3756 11.1801 24.0506 11.2751 23.7906 11.4601C23.5256 11.6551 23.3956 11.8901 23.3956 12.1651Z" fill="#3C4043"/>
<path id="Letter_y_3_" d="M32.1507 8.62012L28.9507 15.9801H27.9607L29.1507 13.4051L27.0406 8.62012H28.0857L29.6056 12.2901H29.6257L31.1056 8.62012H32.1507Z" fill="#3C4043"/>
</g>
<g id="G_Mark_1_">
<path id="Blue_500" d="M14.3871 10.1002C14.3871 9.78721 14.3591 9.48771 14.3071 9.19971H10.2831V10.8497L12.6006 10.8502C12.5066 11.3992 12.2041 11.8672 11.7406 12.1792V13.2497H13.1201C13.9256 12.5042 14.3871 11.4022 14.3871 10.1002Z" fill="#4285F4"/>
<path id="Green_500_1_" d="M11.7412 12.1793C11.3572 12.4383 10.8627 12.5898 10.2842 12.5898C9.16668 12.5898 8.21868 11.8368 7.87918 10.8218H6.45618V11.9258C7.16118 13.3248 8.61018 14.2848 10.2842 14.2848C11.4412 14.2848 12.4132 13.9043 13.1207 13.2493L11.7412 12.1793Z" fill="#34A853"/>
<path id="Yellow_500_1_" d="M7.74517 10.0026C7.74517 9.7176 7.79267 9.4421 7.87917 9.1831V8.0791H6.45617C6.16467 8.6576 6.00067 9.3106 6.00067 10.0026C6.00067 10.6946 6.16517 11.3476 6.45617 11.9261L7.87917 10.8221C7.79267 10.5631 7.74517 10.2876 7.74517 10.0026Z" fill="#FABB05"/>
<path id="Red_500" d="M10.2842 7.41521C10.9157 7.41521 11.4812 7.63271 11.9277 8.05771L13.1502 6.83622C12.4077 6.14472 11.4397 5.72021 10.2842 5.72021C8.61068 5.72021 7.16118 6.68021 6.45618 8.07921L7.87918 9.18322C8.21868 8.16822 9.16668 7.41521 10.2842 7.41521Z" fill="#E94235"/>
</g>
</g>
</g>
<defs>
<clipPath id="clip0_2639_21393">
<rect width="37.65" height="20" fill="white" transform="translate(0.240662)"/>
</clipPath>
</defs>
</svg>
