<svg xmlns="http://www.w3.org/2000/svg" width="32" height="20" fill="none"><rect width="31.5" height="19.5" x=".25" y=".25" fill="#fff" rx="1.75"/><rect width="31.5" height="19.5" x=".25" y=".25" stroke="#BBBBC1" stroke-width=".5" rx="1.75"/><g clip-path="url(#a)"><path fill="#FF5F00" d="M18.239 5.613H13.58v8.371h4.659v-8.37Z"/><path fill="#EB001B" d="M13.877 9.798c0-1.627.754-3.18 2.026-4.185a5.324 5.324 0 0 0-7.484.902 5.322 5.322 0 0 0 .917 7.469 5.31 5.31 0 0 0 6.582 0 5.327 5.327 0 0 1-2.041-4.186Z"/><path fill="#F79E1B" d="M24.524 9.798a5.321 5.321 0 0 1-8.608 4.186 5.334 5.334 0 0 0 .887-7.484 5.594 5.594 0 0 0-.887-.887c2.307-1.82 5.665-1.42 7.469.902a5.27 5.27 0 0 1 1.139 3.283Z"/></g><defs><clipPath id="a"><path fill="#fff" d="M6.54 3.7h18.922V16H6.54z"/></clipPath></defs></svg>