<svg xmlns="http://www.w3.org/2000/svg" width="32" height="20" fill="none"><rect width="31.5" height="19.5" x=".25" y=".25" fill="#fff" rx="1.75"/><rect width="31.5" height="19.5" x=".25" y=".25" stroke="#BBBBC1" stroke-width=".5" rx="1.75"/><path fill="#1434CB" d="M6.043 7.9A8.23 8.23 0 0 0 4 7.127l.032-.143H7.16c.424.015.768.143.88.593l.68 3.241.208.976 1.904-4.81h2.056L9.832 14.03H7.776L6.043 7.9Zm8.357 6.137h-1.944l1.216-7.054h1.944L14.4 14.037Zm7.048-6.881-.265 1.523-.175-.075a3.49 3.49 0 0 0-1.449-.27c-.767 0-1.111.307-1.12.608 0 .33.417.548 1.097.87 1.12.503 1.64 1.118 1.632 1.921-.016 1.464-1.344 2.41-3.384 2.41-.872-.008-1.712-.181-2.168-.376l.272-1.583.256.112c.632.263 1.048.375 1.824.375.56 0 1.16-.217 1.168-.69 0-.308-.256-.533-1.008-.878-.736-.338-1.72-.9-1.704-1.914.008-1.373 1.36-2.334 3.28-2.334.752 0 1.36.158 1.744.3Zm2.584 4.382h1.616c-.08-.352-.448-2.04-.448-2.04l-.136-.609c-.096.263-.264.69-.256.676l-.776 1.973Zm2.4-4.555L28 14.037h-1.8s-.176-.81-.232-1.058h-2.496l-.408 1.058h-2.04l2.888-6.468c.2-.458.552-.586 1.016-.586h1.503Z"/></svg>