<svg xmlns="http://www.w3.org/2000/svg" width="330" height="80" viewBox="0 0 330 80" fill="none">
  <path d="M38.4462 55.6944L55.1903 51.3886L62.2166 72.8323L38.4462 55.6944ZM76.8638 27.975H47.5124L38.4462 0.227509L29.38 27.975L0 27.9469L23.7703 45.0849L14.7042 72.8323L38.4462 55.6944L53.1219 45.1133L76.8638 27.975Z" fill="#022A1C"/>
  <g transform="translate(90,15)">
    <path d="M0.344979 0.980042H32.8414V7.00234H20.064V40.8565H13.0377V7.00234H0.316895V0.980042H0.344979ZM31.4535 11.9834H37.4598V17.5554H37.573C37.7712 16.7675 38.1395 16.0077 38.678 15.276C39.2161 14.5442 39.8677 13.8408 40.6329 13.2496C41.3977 12.6307 42.2479 12.1522 43.1828 11.7583C44.1177 11.3924 45.0807 11.1954 46.0441 11.1954C46.7808 11.1954 47.3189 11.2236 47.6026 11.2517C47.8859 11.2799 48.1692 11.3361 48.4805 11.3643V17.4993C48.0275 17.4148 47.5741 17.3584 47.0926 17.302C46.6107 17.2459 46.1573 17.2179 45.7043 17.2179C44.6277 17.2179 43.6078 17.4429 42.6444 17.8648C41.681 18.2871 40.8596 18.9344 40.151 19.7503C39.4428 20.5945 38.8762 21.6077 38.4513 22.8459C38.0264 24.0841 37.8282 25.4912 37.8282 27.0952V40.8284H31.425V11.9834H31.4535ZM77.9174 40.8565H71.6278V36.8325H71.5143C70.721 38.2957 69.5594 39.4494 68.0014 40.322C66.4429 41.1943 64.8564 41.6447 63.2417 41.6447C59.4166 41.6447 56.6404 40.716 54.9403 38.8305C53.2406 36.945 52.3903 34.1028 52.3903 30.3034V11.9834H58.7935V29.6845C58.7935 32.2173 59.275 34.0183 60.2669 35.0595C61.2299 36.1007 62.6182 36.6355 64.3749 36.6355C65.7347 36.6355 66.8397 36.4386 67.7461 36.0163C68.653 35.5943 69.3897 35.0595 69.9277 34.3558C70.4943 33.6804 70.8912 32.8362 71.1459 31.8794C71.4011 30.9227 71.5143 29.8814 71.5143 28.7558V12.0115H77.9174V40.8565ZM88.825 31.598C89.0232 33.4554 89.7318 34.7501 90.95 35.5099C92.1967 36.2412 93.6697 36.6355 95.3979 36.6355C95.9929 36.6355 96.6731 36.5791 97.4379 36.4946C98.203 36.4102 98.9393 36.2132 99.591 35.9598C100.271 35.7068 100.81 35.3129 101.263 34.8061C101.687 34.2997 101.886 33.6524 101.858 32.8362C101.829 32.0203 101.518 31.3446 100.951 30.8382C100.384 30.3034 99.676 29.9095 98.7977 29.572C97.9193 29.2621 96.9279 28.9807 95.7947 28.7558C94.6612 28.5308 93.5281 28.2774 92.3664 28.024C91.1767 27.771 90.0151 27.4331 88.9101 27.0672C87.805 26.7013 86.8136 26.1949 85.9352 25.5476C85.0569 24.9283 84.3487 24.1125 83.8387 23.1273C83.3002 22.1426 83.0454 20.9324 83.0454 19.4689C83.0454 17.8932 83.4418 16.5986 84.207 15.5294C84.9718 14.4597 85.9637 13.6155 87.1253 12.9681C88.315 12.3211 89.6183 11.8708 91.0632 11.5894C92.5081 11.3361 93.8964 11.1954 95.1997 11.1954C96.7011 11.1954 98.1461 11.3643 99.5063 11.6738C100.866 11.9834 102.113 12.4899 103.217 13.2215C104.322 13.9253 105.229 14.854 105.966 15.9793C106.702 17.105 107.156 18.4841 107.354 20.0881H100.668C100.356 18.5685 99.676 17.5273 98.571 17.0209C97.4663 16.4861 96.1912 16.2327 94.7748 16.2327C94.3213 16.2327 93.7833 16.2607 93.1597 16.3452C92.5366 16.4297 91.97 16.5706 91.403 16.7675C90.865 16.9645 90.4116 17.2739 90.0151 17.6678C89.6468 18.0622 89.4486 18.5685 89.4486 19.2159C89.4486 20.0037 89.7318 20.623 90.2699 21.1013C90.8084 21.5797 91.5166 21.9736 92.3949 22.3115C93.2733 22.6209 94.2648 22.9024 95.3979 23.1273C96.5314 23.3527 97.693 23.6057 98.8827 23.8591C100.044 24.1125 101.177 24.45 102.311 24.8159C103.444 25.1817 104.436 25.6881 105.314 26.3354C106.192 26.9828 106.901 27.771 107.439 28.7277C107.977 29.6845 108.261 30.8946 108.261 32.3017C108.261 34.0183 107.864 35.4534 107.071 36.6636C106.277 37.8453 105.257 38.8305 104.011 39.5622C102.764 40.2936 101.348 40.8565 99.8177 41.1943C98.2877 41.5322 96.7581 41.7007 95.2562 41.7007C93.4149 41.7007 91.7148 41.5038 90.1568 41.0818C88.5983 40.6595 87.2385 40.0406 86.1053 39.2244C84.9718 38.3801 84.0654 37.3389 83.4137 36.1007C82.7621 34.8626 82.4223 33.371 82.3653 31.6544H88.825V31.598ZM109.96 11.9834H114.805V3.3158H121.208V11.9834H126.988V16.7395H121.208V32.1608C121.208 32.8362 121.236 33.399 121.293 33.9058C121.35 34.3842 121.492 34.8061 121.69 35.144C121.888 35.4814 122.2 35.7348 122.625 35.9038C123.05 36.0727 123.588 36.1572 124.325 36.1572C124.778 36.1572 125.231 36.1572 125.685 36.1288C126.138 36.1007 126.591 36.0443 127.044 35.9318V40.8565C126.336 40.9409 125.628 40.9974 124.976 41.0818C124.296 41.1663 123.617 41.1943 122.908 41.1943C121.208 41.1943 119.848 41.0254 118.828 40.716C117.809 40.4065 116.987 39.9281 116.42 39.3089C115.825 38.6896 115.457 37.9298 115.23 37.0014C115.032 36.0727 114.89 35.0031 114.862 33.8213V16.7956H110.017V11.9834H109.96ZM131.521 11.9834H137.584V15.8953H137.697C138.604 14.2067 139.85 13.0246 141.465 12.2929C143.08 11.5613 144.809 11.1954 146.707 11.1954C149.002 11.1954 150.985 11.5894 152.685 12.4055C154.385 13.1935 155.801 14.2912 156.934 15.6979C158.068 17.105 158.889 18.7375 159.456 20.5945C160.023 22.452 160.306 24.45 160.306 26.5608C160.306 28.5024 160.051 30.3878 159.541 32.1889C159.031 34.0183 158.266 35.6224 157.246 37.0295C156.226 38.4366 154.923 39.5338 153.336 40.3781C151.75 41.2224 149.908 41.6447 147.755 41.6447C146.82 41.6447 145.885 41.5602 144.95 41.3913C144.015 41.2224 143.109 40.9409 142.259 40.575C141.409 40.2096 140.587 39.7308 139.879 39.1399C139.142 38.5491 138.547 37.8737 138.037 37.1139H137.924V51.5225H131.521V11.9834ZM153.903 26.4483C153.903 25.1537 153.733 23.8871 153.393 22.649C153.053 21.4108 152.543 20.3415 151.863 19.3848C151.183 18.4276 150.333 17.6678 149.342 17.105C148.322 16.5422 147.16 16.2327 145.857 16.2327C143.165 16.2327 141.126 17.1614 139.765 19.0189C138.405 20.876 137.726 23.3527 137.726 26.4483C137.726 27.9115 137.895 29.2622 138.264 30.5007C138.632 31.7389 139.142 32.8081 139.879 33.7089C140.587 34.6092 141.437 35.3129 142.429 35.8193C143.42 36.3541 144.582 36.6071 145.885 36.6071C147.359 36.6071 148.577 36.6071 149.597 35.7068C150.617 35.116 151.438 34.3277 152.09 33.399C152.741 32.4423 153.223 31.373 153.507 30.1629C153.761 28.9527 153.903 27.7145 153.903 26.4483ZM165.207 0.980042H171.611V7.00234H165.207V0.980042ZM165.207 11.9834H171.611V40.8565H165.207V11.9834ZM177.334 0.980042H183.736V40.8565H177.334V0.980042ZM203.37 41.6447C201.047 41.6447 198.979 41.2508 197.166 40.491C195.352 39.7308 193.823 38.6615 192.547 37.3389C191.301 35.9882 190.338 34.3842 189.686 32.5267C189.034 30.6693 188.695 28.6152 188.695 26.3919C188.695 24.197 189.034 22.1706 189.686 20.3131C190.338 18.4561 191.301 16.852 192.547 15.5009C193.794 14.1503 195.352 13.1091 197.166 12.3492C198.979 11.5894 201.047 11.1954 203.37 11.1954C205.693 11.1954 207.762 11.5894 209.575 12.3492C211.388 13.1091 212.918 14.1783 214.193 15.5009C215.439 16.852 216.403 18.4561 217.054 20.3131C217.706 22.1706 218.046 24.197 218.046 26.3919C218.046 28.6152 217.706 30.6693 217.054 32.5267C216.403 34.3842 215.439 35.9882 214.193 37.3389C212.946 38.6896 211.388 39.7308 209.575 40.491C207.762 41.2508 205.693 41.6447 203.37 41.6447ZM203.37 36.6071C204.787 36.6071 206.033 36.2977 207.082 35.7068C208.13 35.116 208.98 34.3277 209.66 33.371C210.34 32.4142 210.821 31.3166 211.161 30.1064C211.473 28.8967 211.643 27.6581 211.643 26.3919C211.643 25.1537 211.473 23.9436 211.161 22.7054C210.85 21.4672 210.34 20.3976 209.66 19.4408C208.98 18.4841 208.13 17.7243 207.082 17.1334C206.033 16.5422 204.787 16.2327 203.37 16.2327C201.953 16.2327 200.707 16.5422 199.659 17.1334C198.611 17.7243 197.76 18.5121 197.081 19.4408C196.401 20.3976 195.919 21.4672 195.579 22.7054C195.267 23.9436 195.097 25.1537 195.097 26.3919C195.097 27.6581 195.267 28.8967 195.579 30.1064C195.891 31.3166 196.401 32.4142 197.081 33.371C197.76 34.3277 198.611 35.116 199.659 35.7068C200.707 36.3257 201.953 36.6071 203.37 36.6071ZM219.916 11.9834H224.76V3.3158H231.164V11.9834H236.943V16.7395H231.164V32.1608C231.164 32.8362 231.192 33.399 231.249 33.9058C231.305 34.3842 231.447 34.8061 231.645 35.144C231.843 35.4814 232.155 35.7348 232.58 35.9038C233.005 36.0727 233.543 36.1572 234.28 36.1572C234.734 36.1572 235.187 36.1572 235.64 36.1288C236.093 36.1007 236.547 36.0443 237 35.9318V40.8565C236.292 40.9409 235.583 40.9974 234.932 41.0818C234.252 41.1663 233.572 41.1943 232.863 41.1943C231.164 41.1943 229.804 41.0254 228.784 40.716C227.764 40.4065 226.942 39.9281 226.376 39.3089C225.78 38.6896 225.412 37.9298 225.186 37.0014C224.987 36.0727 224.846 35.0031 224.817 33.8213V16.7956H219.973V11.9834H219.916Z" fill="#022A1C" />
  </g>
</svg>