<svg xmlns="http://www.w3.org/2000/svg" width="80" height="72" fill="none"><g clip-path="url(#a)"><path fill="#0066DA" d="m6.048 61.26 3.528 6.094c.733 1.283 1.787 2.291 3.024 3.024l12.6-21.81H0c0 1.42.367 2.841 1.1 4.124z" style="fill:#0066da;fill:color(display-p3 0 .4 .8549);fill-opacity:1"/><path fill="#00AC47" d="M40 22.91 27.4 1.1c-1.237.733-2.291 1.74-3.024 3.024L1.1 44.444A8.3 8.3 0 0 0 0 48.568h25.2z" style="fill:#00ac47;fill:color(display-p3 0 .6745 .2784);fill-opacity:1"/><path fill="#EA4335" d="M67.399 70.378c1.237-.733 2.29-1.74 3.024-3.024l1.466-2.52 7.01-12.142a8.3 8.3 0 0 0 1.1-4.124H54.797l5.363 10.539z" style="fill:#ea4335;fill:color(display-p3 .9176 .2627 .2078);fill-opacity:1"/><path fill="#00832D" d="m39.999 22.91 12.6-21.81C51.362.367 49.94 0 48.475 0H31.522c-1.466 0-2.886.412-4.124 1.1z" style="fill:#00832d;fill:color(display-p3 0 .5137 .1765);fill-opacity:1"/><path fill="#2684FC" d="M54.8 48.568H25.203l-12.6 21.81c1.237.733 2.657 1.1 4.123 1.1h46.552c1.467 0 2.887-.412 4.124-1.1z" style="fill:#2684fc;fill:color(display-p3 .149 .5176 .9882);fill-opacity:1"/><path fill="#FFBA00" d="M67.262 24.284 55.624 4.124C54.891 2.84 53.837 1.833 52.6 1.1L40 22.91l14.8 25.658h25.154c0-1.42-.366-2.84-1.1-4.124z" style="fill:#ffba00;fill:color(display-p3 1 .7294 0);fill-opacity:1"/></g><defs><clipPath id="a"><path fill="#fff" d="M0 0h80v71.478H0z" style="fill:#fff;fill-opacity:1"/></clipPath></defs></svg>