<svg width="28" height="24" viewBox="0 0 28 24" fill="none" xmlns="http://www.w3.org/2000/svg">
<rect width="27.0769" height="24" rx="2.39666" fill="white"/>
<path d="M23.1163 17.8962L22.0923 16.754L21.0289 17.8962H18.9416H14.4517V12.5792H12.3643L14.9637 6.63216H17.4843L18.3902 8.68016V6.63216H21.5409L22.0923 8.16816L22.6437 6.63216H25.0462V5.72631C25.0462 5.17493 24.6129 4.7417 24.0616 4.7417H2.95141C2.40003 4.7417 1.9668 5.17493 1.9668 5.72631V18.5263C1.9668 19.0777 2.40003 19.5109 2.95141 19.5109H24.0616C24.6129 19.5109 25.0462 19.0777 25.0462 18.5263V17.8962H23.1163Z" fill="#0071CE"/>
<path d="M23.3929 17.2664H25.047L22.8809 14.9428L25.047 12.6584H23.4322L22.0538 14.1551L20.7147 12.6584H19.0605L21.2661 14.9821L19.0605 17.2664H20.6753L22.0538 15.7698L23.3929 17.2664Z" fill="#0071CE"/>
<path d="M16.4224 16.2031V15.4941H19.0218V14.4308H16.4224V13.7218H19.0612V12.6584H15.1621V17.2664H19.0612V16.2031H16.4224Z" fill="#0071CE"/>
<path d="M23.8261 11.9884H25.0076V7.34106L23.1172 7.38045L22.0932 10.2555L21.0298 7.38045H19.0605V11.9884H20.3209V8.75891L21.5024 11.9884H22.6052L23.8261 8.75891V11.9884Z" fill="#0071CE"/>
<path d="M17.0534 7.38025H15.4386L13.3906 11.9882H14.7691L15.1629 11.0824H17.2897L17.6835 11.9882H19.1014L17.0534 7.38025ZM15.5962 10.019L16.2263 8.5224L16.8565 10.019H15.5962Z" fill="#0071CE"/>
<path d="M23.9043 14.8243L25.0465 16.0846V13.564L23.9043 14.8243Z" fill="#0071CE"/>
</svg>
