<svg width="23" height="24" viewBox="0 0 23 24" fill="none" xmlns="http://www.w3.org/2000/svg">
<g clip-path="url(#clip0_28092_9582)">
<rect width="22.1538" height="24" rx="2.39666" fill="white"/>
<path d="M13.7741 6.7439H8.19141V16.7751H13.7741V6.7439Z" fill="#FF5F00"/>
<path d="M8.54396 11.7591C8.54396 9.80953 9.44783 7.94862 10.972 6.74346C8.20722 4.56354 4.18412 5.04206 2.0042 7.82456C-0.158001 10.5893 0.320519 14.5947 3.10302 16.7746C5.42472 18.6001 8.66802 18.6001 10.9897 16.7746C9.44783 15.5695 8.54396 13.7086 8.54396 11.7591Z" fill="#EB001B"/>
<path d="M21.305 11.7591C21.305 15.2859 18.4516 18.1393 14.9247 18.1393C13.4892 18.1393 12.1068 17.6608 10.9902 16.7746C13.755 14.5947 14.2335 10.5893 12.0536 7.80684C11.7346 7.41693 11.3801 7.04475 10.9902 6.74346C13.755 4.56354 17.7781 5.04206 19.9403 7.82456C20.8265 8.9411 21.305 10.3235 21.305 11.7591Z" fill="#F79E1B"/>
</g>
<defs>
<clipPath id="clip0_28092_9582">
<rect width="22.1538" height="24" rx="2.39666" fill="white"/>
</clipPath>
</defs>
</svg>
