<svg width="29" height="24" viewBox="0 0 29 24" fill="none" xmlns="http://www.w3.org/2000/svg">
<g clip-path="url(#clip0_28092_9568)">
<rect width="28.9231" height="24" rx="2.39666" fill="white"/>
<path d="M2.70029 9.46828C1.98384 9.07532 1.16616 8.75928 0.251953 8.53996L0.2903 8.36917H4.03865C4.54672 8.38698 4.95898 8.53984 5.09313 9.07971L5.90775 12.9635L6.1573 14.1333L8.4389 8.36917H10.9024L7.24045 16.8131H4.7768L2.70029 9.46828ZM12.7146 16.8221H10.3848L11.842 8.36917H14.1716L12.7146 16.8221ZM21.1601 8.57582L20.8433 10.4011L20.6326 10.3114C20.211 10.1405 19.6545 9.96966 18.8971 9.98771C17.9773 9.98771 17.5648 10.3562 17.5552 10.7159C17.5552 11.1117 18.0543 11.3725 18.8691 11.7592C20.2114 12.3617 20.834 13.0991 20.8247 14.0613C20.8058 15.8149 19.2144 16.9481 16.7698 16.9481C15.7246 16.939 14.7179 16.7318 14.1715 16.4982L14.4975 14.6007L14.8043 14.7358C15.5617 15.0508 16.0601 15.1854 16.9902 15.1854C17.661 15.1854 18.3801 14.9244 18.3893 14.3581C18.3893 13.9894 18.0829 13.7194 17.1816 13.3057C16.2997 12.9009 15.1206 12.2266 15.1397 11.0125C15.1497 9.36692 16.7698 8.21594 19.0705 8.21594C19.9717 8.21594 20.7006 8.40478 21.1601 8.57582ZM24.2566 13.8275H26.193C26.0972 13.4049 25.6561 11.3816 25.6561 11.3816L25.4932 10.6532C25.3782 10.9679 25.177 11.4805 25.1867 11.4625C25.1867 11.4625 24.4484 13.3419 24.2566 13.8275ZM27.1324 8.36917L29.0119 16.822H26.8548C26.8548 16.822 26.6437 15.8508 26.5768 15.554H23.5856C23.4991 15.7787 23.0966 16.822 23.0966 16.822H20.6521L24.1126 9.07051C24.3524 8.52191 24.7746 8.36917 25.3303 8.36917H27.1324Z" fill="#1434CB"/>
</g>
<defs>
<clipPath id="clip0_28092_9568">
<rect width="28.9231" height="24" rx="2.39666" fill="white"/>
</clipPath>
</defs>
</svg>
