<svg width="195" height="195" viewBox="0 0 195 195" fill="none" xmlns="http://www.w3.org/2000/svg">
<rect x="2" y="2" width="191" height="191" rx="32" fill="white" style="fill:white;fill-opacity:1;"/>
<path fill-rule="evenodd" clip-rule="evenodd" d="M6.25148 13.3206C0.149414 21.7194 0.149414 33.7001 0.149414 57.6615V137.339C0.149414 161.3 0.149414 173.281 6.25148 181.68C8.2222 184.392 10.6076 186.778 13.32 188.748C21.7188 194.85 33.6995 194.85 57.6609 194.85H137.338C161.3 194.85 173.28 194.85 181.679 188.748C184.392 186.778 186.777 184.392 188.748 181.68C194.85 173.281 194.85 161.3 194.85 137.339V57.6615C194.85 33.7001 194.85 21.7194 188.748 13.3206C186.777 10.6082 184.392 8.22281 181.679 6.25209C173.28 0.150024 161.3 0.150024 137.338 0.150024H57.6609C33.6995 0.150024 21.7188 0.150024 13.32 6.25209C10.6076 8.22281 8.2222 10.6082 6.25148 13.3206ZM168.89 27.1085H27.1079V168.89H168.89V27.1085Z" fill="#0517A1" style="fill:#0517A1;fill:color(display-p3 0.0196 0.0902 0.6314);fill-opacity:1;"/>
<path d="M117.469 47.577L43.583 148.921H79.0285L152.915 47.577H117.469Z" fill="#0517A1" style="fill:#0517A1;fill:color(display-p3 0.0196 0.0902 0.6314);fill-opacity:1;"/>
</svg>
