<svg width="195" height="195" viewBox="0 0 195 195" fill="none" xmlns="http://www.w3.org/2000/svg">
<rect width="195" height="195" rx="32" fill="#1D1D1B" style="fill:#1D1D1B;fill:color(display-p3 0.1137 0.1137 0.1059);fill-opacity:1;"/>
<path d="M62.6209 80.6383C71.3755 89.4325 83.018 94.4188 95.1119 95.3255C94.2996 83.1768 89.2455 71.4814 80.491 62.6872C71.7365 53.893 60.4549 48.9066 48 48C48.8123 60.1487 53.8664 71.8441 62.6209 80.6383ZM133.379 80.6383C124.625 89.4325 112.982 94.4188 100.888 95.3255C101.7 83.1768 106.755 71.4814 115.509 62.6872C123.812 53.893 135.545 48.9066 148 48C147.097 60.1487 142.134 71.8441 133.379 80.6383ZM133.379 115.362C124.625 106.568 112.982 101.581 100.888 100.675C101.7 112.823 106.755 124.519 115.509 133.313C124.264 142.107 135.906 147.093 148 148C147.097 135.489 142.134 123.703 133.379 115.362ZM62.6209 115.362C71.3755 106.568 83.018 101.581 95.5632 100.675C94.7509 112.823 89.6967 124.519 80.9422 133.313C71.7365 142.107 60.4549 147.184 48 148C48.8123 135.489 53.8664 123.703 62.6209 115.362Z" fill="white" style="fill:white;fill-opacity:1;"/>
</svg>
