<svg width="25" height="16" viewBox="0 0 25 16" fill="none" xmlns="http://www.w3.org/2000/svg">
<path d="M22.912 14.2508L21.8027 13.0135L20.6507 14.2508H18.3893H13.5253V8.49079H11.264L14.08 2.04812H16.8107L17.792 4.26679V2.04812H21.2053L21.8027 3.71212L22.4 2.04812H25.0027V1.06679C25.0027 0.469455 24.5333 0.00012207 23.936 0.00012207H1.06667C0.469333 0.00012207 0 0.469455 0 1.06679V14.9335C0 15.5308 0.469333 16.0001 1.06667 16.0001H23.936C24.5333 16.0001 25.0027 15.5308 25.0027 14.9335V14.2508H22.912Z" fill="#0071CE"/>
<path d="M23.2104 13.5678H25.0024L22.6558 11.0505L25.0024 8.57581H23.2531L21.7598 10.1971L20.3091 8.57581H18.5171L20.9064 11.0931L18.5171 13.5678H20.2664L21.7598 11.9465L23.2104 13.5678Z" fill="#0071CE"/>
<path d="M15.6583 12.4158V11.6478H18.4743V10.4958H15.6583V9.7278H18.517V8.57581H14.293V13.5678H18.517V12.4158H15.6583Z" fill="#0071CE"/>
<path d="M23.6798 7.84955H24.9598V2.81488L22.9118 2.85755L21.8024 5.97221L20.6504 2.85755H18.5171V7.84955H19.8824V4.35088L21.1624 7.84955H22.3571L23.6798 4.35088V7.84955Z" fill="#0071CE"/>
<path d="M16.341 2.85706H14.5917L12.373 7.84906H13.8664L14.293 6.86772H16.597L17.0237 7.84906H18.5597L16.341 2.85706ZM14.7624 5.71572L15.445 4.09439L16.1277 5.71572H14.7624Z" fill="#0071CE"/>
<path d="M23.7656 10.9231L25.003 12.2885V9.5578L23.7656 10.9231Z" fill="#0071CE"/>
</svg>
