<svg width="26" height="16" viewBox="0 0 26 16" fill="none" xmlns="http://www.w3.org/2000/svg">
<rect width="25.6" height="16" rx="1.6" fill="#141413"/>
<g clip-path="url(#clip0_25870_18377)">
<path d="M14.5903 4.49097H10.8633V11.1877H14.5903V4.49097Z" fill="#FF5F00"/>
<path d="M11.1004 7.83891C11.1004 6.53741 11.7039 5.29508 12.7214 4.49052C10.8756 3.03522 8.18983 3.35467 6.73452 5.21226C5.29105 7.05801 5.61051 9.73199 7.46809 11.1873C9.01805 12.406 11.1833 12.406 12.7332 11.1873C11.7039 10.3827 11.1004 9.1404 11.1004 7.83891Z" fill="#EB001B"/>
<path d="M19.6185 7.83891C19.6185 10.1934 17.7136 12.0983 15.3591 12.0983C14.4007 12.0983 13.4778 11.7789 12.7324 11.1873C14.5782 9.73199 14.8976 7.05801 13.4423 5.20043C13.2294 4.94013 12.9927 4.69166 12.7324 4.49052C14.5782 3.03522 17.264 3.35467 18.7075 5.21226C19.299 5.95766 19.6185 6.88054 19.6185 7.83891Z" fill="#F79E1B"/>
</g>
<defs>
<clipPath id="clip0_25870_18377">
<rect width="15.1385" height="9.84" fill="white" transform="translate(5.23047 2.95935)"/>
</clipPath>
</defs>
</svg>
