<svg width="26" height="16" viewBox="0 0 26 16" fill="none" xmlns="http://www.w3.org/2000/svg">
<rect width="25.6" height="16" rx="1.6" fill="#1434CA"/>
<path d="M4.83518 6.32043C4.35688 6.05809 3.811 5.84711 3.20068 5.70069L3.22628 5.58667H5.72866C6.06785 5.59856 6.34308 5.70061 6.43263 6.06103L6.97647 8.65383L7.14307 9.43475L8.66625 5.58667H10.3109L7.86618 11.2238H6.22145L4.83518 6.32043ZM11.5207 11.2298H9.96533L10.9381 5.58667H12.4934L11.5207 11.2298ZM17.1589 5.72463L16.9474 6.9432L16.8067 6.88327C16.5253 6.76917 16.1537 6.65515 15.6481 6.6672C15.034 6.6672 14.7587 6.91319 14.7523 7.15337C14.7523 7.41755 15.0854 7.59166 15.6294 7.84986C16.5255 8.25209 16.9412 8.74432 16.9349 9.38672C16.9224 10.5574 15.8599 11.3139 14.2279 11.3139C13.5302 11.3079 12.8581 11.1695 12.4933 11.0136L12.711 9.74682L12.9158 9.83698C13.4214 10.0473 13.7541 10.1372 14.3751 10.1372C14.8229 10.1372 15.303 9.96289 15.3091 9.58484C15.3091 9.33869 15.1046 9.15844 14.5028 8.88228C13.9141 8.61203 13.1269 8.16185 13.1397 7.35133C13.1463 6.25276 14.2279 5.48438 15.7639 5.48438C16.3655 5.48438 16.8521 5.61044 17.1589 5.72463ZM19.2261 9.23065H20.5188C20.4549 8.94851 20.1603 7.59772 20.1603 7.59772L20.0517 7.11148C19.9749 7.32157 19.8406 7.66379 19.847 7.65174C19.847 7.65174 19.3541 8.90646 19.2261 9.23065ZM21.1459 5.58667L22.4007 11.2297H20.9606C20.9606 11.2297 20.8197 10.5814 20.775 10.3832H18.7781C18.7203 10.5332 18.4517 11.2297 18.4517 11.2297H16.8197L19.13 6.05488C19.29 5.68864 19.5719 5.58667 19.9429 5.58667H21.1459Z" fill="white"/>
</svg>
